G75*
%MOIN*%
%OFA0B0*%
%FSLAX25Y25*%
%IPPOS*%
%LPD*%
%AMOC8*
5,1,8,0,0,1.08239X$1,22.5*
%
%ADD10R,0.09900X0.05300*%
%ADD11R,0.09900X0.04500*%
%ADD12C,0.05950*%
%ADD13OC8,0.10800*%
%ADD14R,0.06706X0.11036*%
D10*
X0038450Y0093941D03*
X0038450Y0101815D03*
X0038450Y0109689D03*
X0038450Y0117563D03*
X0038450Y0125437D03*
X0038450Y0133311D03*
X0038450Y0141185D03*
X0038450Y0149059D03*
X0109350Y0149059D03*
X0109350Y0141185D03*
X0109350Y0133311D03*
X0109350Y0125437D03*
X0109350Y0117563D03*
X0109350Y0109689D03*
X0109350Y0101815D03*
X0109350Y0093941D03*
D11*
X0200750Y0093941D03*
X0200750Y0101815D03*
X0200750Y0109689D03*
X0200750Y0117563D03*
X0200750Y0125437D03*
X0200750Y0133311D03*
X0200750Y0141185D03*
X0200750Y0149059D03*
X0257050Y0149059D03*
X0257050Y0141185D03*
X0257050Y0133311D03*
X0257050Y0125437D03*
X0257050Y0117563D03*
X0257050Y0109689D03*
X0257050Y0101815D03*
X0257050Y0093941D03*
D12*
X0118900Y0016500D02*
X0118900Y0011350D01*
X0128900Y0011350D02*
X0128900Y0016500D01*
X0138900Y0016500D02*
X0138900Y0011350D01*
X0148900Y0011350D02*
X0148900Y0016500D01*
X0158900Y0016500D02*
X0158900Y0011350D01*
X0168900Y0011350D02*
X0168900Y0016500D01*
X0178900Y0016500D02*
X0178900Y0011350D01*
X0188900Y0011350D02*
X0188900Y0016500D01*
X0188900Y0026500D02*
X0188900Y0031650D01*
X0178900Y0031650D02*
X0178900Y0026500D01*
X0168900Y0026500D02*
X0168900Y0031650D01*
X0158900Y0031650D02*
X0158900Y0026500D01*
X0148900Y0026500D02*
X0148900Y0031650D01*
X0138900Y0031650D02*
X0138900Y0026500D01*
X0128900Y0026500D02*
X0128900Y0031650D01*
X0118900Y0031650D02*
X0118900Y0026500D01*
D13*
X0066400Y0079000D03*
X0251400Y0079000D03*
D14*
X0170120Y0134000D03*
X0147680Y0134000D03*
M02*
