G75*
%MOIN*%
%OFA0B0*%
%FSLAX25Y25*%
%IPPOS*%
%LPD*%
%AMOC8*
5,1,8,0,0,1.08239X$1,22.5*
%
%ADD10C,0.01000*%
%ADD11C,0.00600*%
%ADD12C,0.00500*%
%ADD13C,0.00400*%
D10*
X0003900Y0001500D02*
X0303900Y0001500D01*
X0303900Y0191500D01*
X0003900Y0191500D01*
X0003900Y0001500D01*
D11*
X0034600Y0089500D02*
X0034600Y0090400D01*
X0034600Y0089500D02*
X0113200Y0089500D01*
X0113200Y0090400D01*
X0113200Y0097500D02*
X0113200Y0098300D01*
X0113200Y0105400D02*
X0113200Y0106100D01*
X0113200Y0113200D02*
X0113200Y0114000D01*
X0113200Y0121100D02*
X0113200Y0121900D01*
X0113200Y0129000D02*
X0113200Y0129800D01*
X0113200Y0136900D02*
X0113200Y0137600D01*
X0113200Y0144700D02*
X0113200Y0145500D01*
X0113200Y0152600D02*
X0113200Y0153500D01*
X0034600Y0153500D01*
X0034600Y0152600D01*
X0026200Y0149100D02*
X0026198Y0149139D01*
X0026192Y0149178D01*
X0026183Y0149216D01*
X0026170Y0149253D01*
X0026153Y0149289D01*
X0026133Y0149322D01*
X0026109Y0149354D01*
X0026083Y0149383D01*
X0026054Y0149409D01*
X0026022Y0149433D01*
X0025989Y0149453D01*
X0025953Y0149470D01*
X0025916Y0149483D01*
X0025878Y0149492D01*
X0025839Y0149498D01*
X0025800Y0149500D01*
X0025761Y0149498D01*
X0025722Y0149492D01*
X0025684Y0149483D01*
X0025647Y0149470D01*
X0025611Y0149453D01*
X0025578Y0149433D01*
X0025546Y0149409D01*
X0025517Y0149383D01*
X0025491Y0149354D01*
X0025467Y0149322D01*
X0025447Y0149289D01*
X0025430Y0149253D01*
X0025417Y0149216D01*
X0025408Y0149178D01*
X0025402Y0149139D01*
X0025400Y0149100D01*
X0025402Y0149061D01*
X0025408Y0149022D01*
X0025417Y0148984D01*
X0025430Y0148947D01*
X0025447Y0148911D01*
X0025467Y0148878D01*
X0025491Y0148846D01*
X0025517Y0148817D01*
X0025546Y0148791D01*
X0025578Y0148767D01*
X0025611Y0148747D01*
X0025647Y0148730D01*
X0025684Y0148717D01*
X0025722Y0148708D01*
X0025761Y0148702D01*
X0025800Y0148700D01*
X0025839Y0148702D01*
X0025878Y0148708D01*
X0025916Y0148717D01*
X0025953Y0148730D01*
X0025989Y0148747D01*
X0026022Y0148767D01*
X0026054Y0148791D01*
X0026083Y0148817D01*
X0026109Y0148846D01*
X0026133Y0148878D01*
X0026153Y0148911D01*
X0026170Y0148947D01*
X0026183Y0148984D01*
X0026192Y0149022D01*
X0026198Y0149061D01*
X0026200Y0149100D01*
X0034600Y0145500D02*
X0034600Y0144700D01*
X0034600Y0137600D02*
X0034600Y0136900D01*
X0034600Y0129800D02*
X0034600Y0129000D01*
X0034600Y0121900D02*
X0034600Y0121100D01*
X0034600Y0114000D02*
X0034600Y0113200D01*
X0034600Y0106100D02*
X0034600Y0105400D01*
X0034600Y0098300D02*
X0034600Y0097500D01*
X0187700Y0149100D02*
X0187702Y0149139D01*
X0187708Y0149178D01*
X0187717Y0149216D01*
X0187730Y0149253D01*
X0187747Y0149289D01*
X0187767Y0149322D01*
X0187791Y0149354D01*
X0187817Y0149383D01*
X0187846Y0149409D01*
X0187878Y0149433D01*
X0187911Y0149453D01*
X0187947Y0149470D01*
X0187984Y0149483D01*
X0188022Y0149492D01*
X0188061Y0149498D01*
X0188100Y0149500D01*
X0188139Y0149498D01*
X0188178Y0149492D01*
X0188216Y0149483D01*
X0188253Y0149470D01*
X0188289Y0149453D01*
X0188322Y0149433D01*
X0188354Y0149409D01*
X0188383Y0149383D01*
X0188409Y0149354D01*
X0188433Y0149322D01*
X0188453Y0149289D01*
X0188470Y0149253D01*
X0188483Y0149216D01*
X0188492Y0149178D01*
X0188498Y0149139D01*
X0188500Y0149100D01*
X0188498Y0149061D01*
X0188492Y0149022D01*
X0188483Y0148984D01*
X0188470Y0148947D01*
X0188453Y0148911D01*
X0188433Y0148878D01*
X0188409Y0148846D01*
X0188383Y0148817D01*
X0188354Y0148791D01*
X0188322Y0148767D01*
X0188289Y0148747D01*
X0188253Y0148730D01*
X0188216Y0148717D01*
X0188178Y0148708D01*
X0188139Y0148702D01*
X0188100Y0148700D01*
X0188061Y0148702D01*
X0188022Y0148708D01*
X0187984Y0148717D01*
X0187947Y0148730D01*
X0187911Y0148747D01*
X0187878Y0148767D01*
X0187846Y0148791D01*
X0187817Y0148817D01*
X0187791Y0148846D01*
X0187767Y0148878D01*
X0187747Y0148911D01*
X0187730Y0148947D01*
X0187717Y0148984D01*
X0187708Y0149022D01*
X0187702Y0149061D01*
X0187700Y0149100D01*
X0196900Y0152200D02*
X0196900Y0153500D01*
X0260900Y0153500D01*
X0260900Y0152200D01*
X0260900Y0145900D02*
X0260900Y0144300D01*
X0260900Y0138000D02*
X0260900Y0136500D01*
X0260900Y0130200D02*
X0260900Y0128600D01*
X0260900Y0122300D02*
X0260900Y0120700D01*
X0260900Y0114400D02*
X0260900Y0112800D01*
X0260900Y0106500D02*
X0260900Y0105000D01*
X0260900Y0098700D02*
X0260900Y0097100D01*
X0260900Y0090800D02*
X0260900Y0089500D01*
X0196900Y0089500D01*
X0196900Y0090800D01*
X0196900Y0097100D02*
X0196900Y0098700D01*
X0196900Y0105000D02*
X0196900Y0106500D01*
X0196900Y0112800D02*
X0196900Y0114400D01*
X0196900Y0120700D02*
X0196900Y0122300D01*
X0196900Y0128600D02*
X0196900Y0130200D01*
X0196900Y0136500D02*
X0196900Y0138000D01*
X0196900Y0144300D02*
X0196900Y0145900D01*
D12*
X0303900Y0001500D02*
X0003900Y0001500D01*
X0003900Y0191500D01*
X0303900Y0191500D01*
X0303900Y0001500D01*
X0263464Y0091250D02*
X0260462Y0091250D01*
X0261963Y0091250D02*
X0261963Y0095754D01*
X0260462Y0094253D01*
X0258860Y0095754D02*
X0255858Y0095754D01*
X0257359Y0095754D02*
X0257359Y0091250D01*
X0254256Y0091250D02*
X0254256Y0095754D01*
X0251254Y0095754D02*
X0254256Y0091250D01*
X0251254Y0091250D02*
X0251254Y0095754D01*
X0249653Y0094253D02*
X0249653Y0091250D01*
X0249653Y0093502D02*
X0246650Y0093502D01*
X0246650Y0094253D02*
X0248151Y0095754D01*
X0249653Y0094253D01*
X0246650Y0094253D02*
X0246650Y0091250D01*
X0078464Y0091250D02*
X0075462Y0091250D01*
X0078464Y0094253D01*
X0078464Y0095003D01*
X0077714Y0095754D01*
X0076212Y0095754D01*
X0075462Y0095003D01*
X0073860Y0095754D02*
X0070858Y0095754D01*
X0072359Y0095754D02*
X0072359Y0091250D01*
X0069256Y0091250D02*
X0069256Y0095754D01*
X0066254Y0095754D02*
X0069256Y0091250D01*
X0066254Y0091250D02*
X0066254Y0095754D01*
X0064653Y0094253D02*
X0064653Y0091250D01*
X0064653Y0093502D02*
X0061650Y0093502D01*
X0061650Y0094253D02*
X0063151Y0095754D01*
X0064653Y0094253D01*
X0061650Y0094253D02*
X0061650Y0091250D01*
D13*
X0151600Y0141700D02*
X0151600Y0146304D01*
X0153902Y0146304D01*
X0154669Y0145537D01*
X0154669Y0144002D01*
X0153902Y0143235D01*
X0151600Y0143235D01*
X0153135Y0143235D02*
X0154669Y0141700D01*
X0156204Y0141700D02*
X0159273Y0141700D01*
X0157739Y0141700D02*
X0157739Y0146304D01*
X0156204Y0144769D01*
M02*
